<mxfile
  host="Electron" 
  agent="Mozilla/5.0 (Macintosh; Intel Mac OS X 10_15_7) AppleWebKit/537.36 (KHTML, like Gecko) draw.io/25.0.2 Chrome/128.0.6613.186 Electron/32.2.5 Safari/537.36" 
  version="25.0.2"
  >
  <diagram
    name="-"
    >
    <mxGraphModel
      grid="1" 
      gridSize="10" 
      guides="1" 
      tooltips="1" 
      connect="1" 
      arrows="1" 
      fold="1" 
      page="1" 
      pageScale="1" 
      pageWidth="1" 
      pageHeight="1" 
      math="0" 
      shadow="0"
      >
      <root>
        <mxCell
          id="page"
          />
        <mxCell
          id="root" 
          parent="page"
          />
        <mxCell
          style="verticalAlign=top;aspect=fixed;align=center;spacingLeft=5;spacingRight=5;spacingBottom=5;strokeColor=none;" 
          id="shape_" 
          parent="root" 
          value=" " 
          vertex="1"
          >
          <mxGeometry
            as="geometry" 
            width="48" 
            height="48" 
            x="0" 
            y="0"
            />
          </mxCell>
        <mxCell
          style="shape=image;editableCssRules=.*;verticalLabelPosition=bottom;labelBackgroundColor=default;verticalAlign=top;aspect=fixed;imageAspect=0;image=data:image/svg+xml,PHN2ZyB4bWxucz0iaHR0cDovL3d3dy53My5vcmcvMjAwMC9zdmciIHZpZXdCb3g9Ii0wLjUgLTAuNSAyOCAyOCIgaGVpZ2h0PSIyOCIgd2lkdGg9IjI4Ij4mI3hhOwkgIDxzdHlsZSB0eXBlPSJ0ZXh0L2NzcyI+LnN0MCB7IHN0b3AtY29sb3I6IHJnYigzNSwgMTQ5LCAyNTUpOyB9IC5zdDEgeyBzdG9wLWNvbG9yOiByZ2IoMCwgODcsIDIxMCk7IH0gPC9zdHlsZT4mI3hhOwk8ZGVmcz4mI3hhOwkJPGxpbmVhckdyYWRpZW50IGdyYWRpZW50VW5pdHM9InVzZXJTcGFjZU9uVXNlIiB5Mj0iMjUuMzA5IiB4Mj0iMjMuNDU0IiB5MT0iMy40NzQiIHgxPSIyLjAzOSIgaWQ9IkEiPiYjeGE7CQkJPHN0b3AgY2xhc3M9InN0MCIvPiYjeGE7CQkJPHN0b3AgY2xhc3M9InN0MSIgb2Zmc2V0PSIxIi8+JiN4YTsJCTwvbGluZWFyR3JhZGllbnQ+JiN4YTsJPC9kZWZzPiYjeGE7CTxwYXRoIGZpbGw9InVybCgjQSkiIGQ9Ik0xMy41LS41YzEuOTMyIDAgMy43MzYuMzY0IDUuNDE0IDEuMDk0IDEuNzEzLjczIDMuMjA4IDEuNzMyIDQuNDgzIDMuMDA4IDEuMjgzIDEuMjg2IDIuMzA1IDIuODA5IDMuMDA4IDQuNDgzLjczIDEuNjc4IDEuMDk0IDMuNDgyIDEuMDk0IDUuNDE0YTEzLjgyIDEzLjgyIDAgMCAxLTEuMDk0IDUuNDY5Yy0uNzEzIDEuNjU0LTEuNzM0IDMuMTU3LTMuMDA4IDQuNDI5LTEuMjg2IDEuMjgzLTIuODA5IDIuMzA1LTQuNDgzIDMuMDA4QTEzLjQzIDEzLjQzIDAgMCAxIDEzLjUgMjcuNWExMy44MiAxMy44MiAwIDAgMS01LjQ2OS0xLjA5NGMtMy4zMzgtMS40MzgtNS45OTktNC4wOTktNy40MzctNy40MzdBMTMuODIgMTMuODIgMCAwIDEtLjUgMTMuNWMwLTEuOTMyLjM2NC0zLjczNiAxLjA5NC01LjQxNC43My0xLjcxMyAxLjczMi0zLjIwOCAzLjAwOC00LjQ4M1M2LjM3OCAxLjMwNyA4LjAzMS41OTRBMTMuODIgMTMuODIgMCAwIDEgMTMuNS0uNXptLTcgMTRhMS43IDEuNyAwIDAgMC0uNjguMTE2Yy0uMjE2LjA4NS0uNDEzLjIxMy0uNTc4LjM3NnMtLjI5MS4zNjItLjM3Ni41NzgtLjEyNC40NDgtLjExNi42OGMwIC40MzguMTY0Ljg1Ny40OTIgMS4yNThsMy41IDMuNWMuNDAyLjMyNy44MjEuNDkyIDEuMjU4LjQ5Mi40NzMgMCAuODkzLS4xNjQgMS4yNTgtLjQ5MmwxMC41LTEwLjVjLjMyNy0uNDAzLjQ5Mi0uODIxLjQ5Mi0xLjI1OC4wMDMtLjIyOS0uMDQ1LS40NTUtLjE0LS42NjNzLS4yMzQtLjM5My0uNDA4LS41NDFjLS4xNDgtLjE3NC0uMzMzLS4zMTItLjU0LS40MDdzLS40MzQtLjE0Mi0uNjYyLS4xMzljLS40MzcgMC0uODU4LjE2NS0xLjI1OC40OTJMMTAgMTYuMjg5IDcuNzU4IDEzLjk5Yy0uMzQxLS4zMTgtLjc5Mi0uNDkzLTEuMjU4LS40OXoiLz4mI3hhOzwvc3ZnPg;strokeColor=none;" 
          id="success_sap_" 
          parent="shape_" 
          value=" " 
          vertex="1"
          >
          <mxGeometry
            width="28" 
            height="28" 
            as="geometry" 
            x="10" 
            y="10"
            />
          </mxCell>
        </root>
      </mxGraphModel>
    </diagram>
  </mxfile>